<?xml version="1.0" encoding="utf-8"?>
<svg viewBox="0 0 5000 1000" xmlns="http://www.w3.org/2000/svg">
  <g transform="matrix(1, 0, 0, 1, 0, -618.405945)">
    <path d="M 3807.571 851.539 C 3808.65 853.495 3876.041 975.189 3957.321 1121.976 C 4038.601 1268.763 4105.142 1388.872 4105.183 1388.891 C 4105.225 1388.91 4136.924 1335.22 4175.603 1269.588 C 4230.599 1176.304 4245.972 1150.285 4246.065 1150.376 C 4246.137 1150.441 4277.172 1204.158 4315.043 1269.736 C 4352.914 1335.313 4383.938 1388.937 4383.98 1388.9 C 4384.042 1388.845 4685.326 856.247 4689.35 849.085 L 4689.963 848 L 4533.387 848.019 L 4376.802 848.046 L 4311.599 958.667 C 4275.741 1019.5 4246.365 1069.26 4246.334 1069.232 C 4246.303 1069.204 4217.55 1019.427 4182.429 958.612 L 4118.564 848.046 L 3962.082 848.019 L 3805.6 848 L 3807.571 851.539 Z M 4141.01 968.416 C 4167.389 1014.079 4196.525 1064.543 4205.777 1080.556 L 4222.592 1109.67 L 4199.751 1148.431 C 4187.179 1169.753 4176.775 1187.396 4176.62 1187.637 L 4176.34 1188.082 L 4110.919 1072.41 C 4074.926 1008.789 4045.478 956.731 4045.468 956.722 C 4045.426 956.676 4008.167 973.512 4008.167 973.576 C 4008.167 973.614 4040.614 1031 4080.278 1101.117 C 4119.934 1171.226 4152.379 1228.64 4152.379 1228.696 C 4152.379 1228.807 4106.542 1306.588 4106.407 1306.708 C 4106.345 1306.763 3873.365 886.205 3873.044 885.473 C 3873.002 885.362 3888.156 885.343 3983.025 885.362 L 4093.058 885.389 L 4141.01 968.416 Z M 4486.057 888.929 C 4484.936 890.913 4454.721 944.333 4418.904 1007.658 C 4383.088 1070.974 4353.816 1122.81 4353.868 1122.846 C 4354.075 1123.014 4390.981 1139.609 4391.074 1139.572 C 4391.136 1139.554 4423.53 1082.344 4463.061 1012.448 L 4534.943 885.352 L 4578.436 885.343 C 4608.807 885.343 4621.929 885.371 4621.897 885.446 C 4621.814 885.676 4383.595 1306.773 4383.554 1306.773 C 4383.523 1306.773 4357.913 1262.462 4326.639 1208.31 L 4269.766 1109.847 L 4335.799 997.798 C 4372.123 936.178 4401.904 885.667 4401.986 885.547 L 4402.122 885.343 L 4445.106 885.343 L 4488.09 885.343 L 4486.057 888.929 Z" fill="#000000" stroke="none" style=""/>
    <g transform="matrix(1.291148, 0, 0, 1.291148, 302.640442, -1882.873657)" style="">
      <path d="M 5.761 2312.595 L 5.851 2510.149 L 37.912 2510.24 L 69.943 2510.3 L 69.943 2392.159 L 69.943 2273.989 L 199.937 2403.983 L 329.931 2533.976 L 329.931 2336.331 L 329.931 2138.717 L 297.961 2138.717 L 265.99 2138.717 L 265.99 2256.797 C 265.99 2321.734 265.899 2374.877 265.779 2374.877 C 265.628 2374.877 207.085 2316.425 135.604 2244.944 L 5.7 2115.04 L 5.761 2312.595 Z" fill="#000000" stroke="none"/>
      <path d="M 2429.137 2133.016 C 2398.523 2133.981 2371.68 2140.496 2348.456 2152.56 C 2329.877 2162.242 2315.43 2174.337 2304.874 2189.085 C 2295.946 2201.572 2290.517 2215.145 2288.406 2230.406 C 2287.742 2235.051 2287.652 2247.688 2288.255 2252.273 C 2290.185 2267.595 2295.132 2279.78 2303.697 2290.426 C 2306.653 2294.106 2313.681 2300.953 2318.295 2304.632 C 2331.747 2315.37 2344.596 2322.126 2364.14 2328.671 C 2381.211 2334.431 2401.117 2340.041 2428.232 2346.827 C 2456.734 2353.945 2479.355 2360.43 2489.006 2364.23 C 2498.839 2368.091 2508.49 2373.852 2514.704 2379.492 C 2518.685 2383.141 2522.003 2388.51 2523.269 2393.426 C 2524.084 2396.593 2524.355 2402.957 2523.842 2407.481 C 2522.455 2420.209 2517.358 2428.956 2506.439 2437.371 C 2494.888 2446.329 2482.642 2451.546 2464.878 2455.075 C 2454.623 2457.126 2447.686 2457.85 2437.733 2457.85 C 2426.211 2457.85 2416.861 2456.734 2406.486 2454.17 C 2387.062 2449.405 2366.553 2439.18 2351.321 2426.694 C 2349.904 2425.548 2342.364 2418.128 2334.552 2410.226 L 2320.346 2395.869 L 2296.7 2415.595 C 2283.7 2426.422 2273.054 2435.44 2273.084 2435.652 C 2273.144 2436.225 2280.564 2445.756 2284.635 2450.551 C 2301.375 2470.035 2322.759 2485.779 2347.551 2496.878 C 2371.559 2507.646 2397.106 2513.95 2423.648 2515.729 C 2429.559 2516.121 2447.716 2516.121 2454.17 2515.729 C 2496.486 2513.165 2528.909 2501.765 2552.918 2481.014 C 2566.792 2469.07 2576.715 2454.623 2582.385 2438.276 C 2588.9 2419.365 2590.106 2395.99 2585.522 2377.139 C 2580.877 2357.987 2571.949 2344.656 2554.184 2330.36 C 2541.456 2320.105 2527.703 2312.806 2509.365 2306.563 C 2490.092 2299.987 2465.933 2293.563 2434.566 2286.656 C 2415.896 2282.554 2398.523 2278.091 2388.631 2274.863 C 2378.014 2271.395 2369.147 2266.871 2361.998 2261.291 C 2357.384 2257.702 2354.579 2253.962 2352.92 2249.257 C 2352.136 2246.964 2352.075 2246.572 2352.075 2241.415 C 2352.075 2236.8 2352.196 2235.594 2352.769 2233.301 C 2354.277 2227.239 2357.203 2222.293 2362.149 2217.437 C 2371.137 2208.509 2384.227 2201.361 2399.579 2196.927 C 2415.625 2192.282 2429.499 2190.563 2445.152 2191.197 C 2462.827 2191.921 2476.55 2194.514 2489.308 2199.551 C 2504.238 2205.463 2518.655 2213.727 2534.218 2225.399 C 2537.686 2227.993 2540.642 2230.014 2540.763 2229.893 C 2541.396 2229.2 2573.095 2181.364 2573.125 2181.063 C 2573.156 2180.61 2563.444 2172.829 2558.135 2169.059 C 2522.033 2143.452 2479.053 2131.418 2429.137 2133.016 Z" fill="#000000" stroke="none"/>
      <path d="M 467.073 2138.928 C 466.741 2139.259 466.832 2343.751 467.164 2351.352 C 469.064 2394.18 482.184 2429.469 507.61 2459.961 C 511.259 2464.335 521.212 2474.408 525.525 2478.088 C 546.517 2495.974 571.883 2508.219 598.515 2513.286 C 610.187 2515.518 618.572 2516.181 632.386 2515.94 C 642.852 2515.759 647.919 2515.337 656.303 2513.919 C 695.814 2507.224 731.585 2485.417 755.955 2453.145 C 776.917 2425.337 788.409 2393.275 790.791 2355.876 C 790.972 2352.588 791.093 2315.158 791.093 2244.793 L 791.093 2138.717 L 759.122 2138.717 L 727.152 2138.717 L 727.061 2245.396 C 726.971 2343.842 726.94 2352.468 726.458 2356.781 C 724.528 2374.153 720.576 2388.058 713.579 2402.022 C 704.169 2420.843 691.019 2435.32 674.189 2445.454 C 663.331 2451.999 651.99 2455.89 639.534 2457.368 C 634.919 2457.91 624.333 2458.001 619.929 2457.518 C 602.587 2455.648 587.235 2449.194 572.727 2437.672 C 569.017 2434.717 560.512 2426.181 557.617 2422.532 C 541.993 2402.716 533.277 2379.492 531.407 2352.558 C 531.226 2349.753 531.105 2310.695 531.105 2243.436 L 531.105 2138.717 L 499.195 2138.717 C 481.641 2138.717 467.164 2138.807 467.073 2138.928 Z" fill="#000000" stroke="none"/>
      <path d="M 881.877 2138.867 C 881.877 2139.078 1072.224 2532.438 1072.435 2532.68 C 1072.555 2532.8 1085.887 2505.082 1102.053 2471.091 C 1118.219 2437.099 1131.52 2409.291 1131.611 2409.291 C 1131.701 2409.291 1145.002 2437.099 1161.168 2471.091 C 1177.335 2505.082 1190.666 2532.8 1190.786 2532.68 C 1190.998 2532.438 1381.344 2139.109 1381.344 2138.867 C 1381.344 2138.777 1365.177 2138.747 1345.422 2138.777 L 1309.47 2138.867 L 1250.053 2266.207 C 1217.358 2336.271 1190.545 2393.577 1190.455 2393.577 C 1190.334 2393.577 1184.513 2382.056 1177.455 2367.94 C 1165.572 2344.143 1164.667 2342.273 1164.999 2341.489 C 1165.18 2341.037 1187.318 2295.282 1214.222 2239.846 C 1241.095 2184.41 1263.113 2138.958 1263.113 2138.867 C 1263.113 2138.777 1246.946 2138.747 1227.191 2138.777 L 1191.239 2138.867 L 1131.973 2265.905 C 1099.338 2335.789 1072.586 2392.974 1072.495 2392.974 C 1072.405 2392.974 1045.652 2335.789 1013.048 2265.905 L 953.751 2138.867 L 917.799 2138.777 C 898.044 2138.747 881.877 2138.777 881.877 2138.867 Z" fill="#000000" stroke="none"/>
      <path d="M 1471.977 2139.078 C 1471.887 2139.29 1471.857 2222.866 1471.887 2324.81 L 1471.977 2510.149 L 1610.356 2510.24 L 1748.705 2510.3 L 1748.705 2481.195 L 1748.705 2452.089 L 1642.387 2452.089 L 1536.07 2452.089 L 1536.07 2398.403 L 1536.07 2344.716 L 1636.506 2344.716 L 1736.942 2344.716 L 1736.942 2315.611 L 1736.942 2286.505 L 1636.506 2286.505 L 1536.07 2286.505 L 1536.07 2241.716 L 1536.07 2196.927 L 1639.522 2196.927 L 1742.974 2196.927 L 1742.974 2167.822 L 1742.974 2138.717 L 1607.551 2138.717 C 1499.484 2138.717 1472.068 2138.807 1471.977 2139.078 Z" fill="#000000" stroke="none"/>
      <path d="M 1880.056 2139.078 C 1879.965 2139.29 1879.935 2222.866 1879.965 2324.81 L 1880.056 2510.149 L 1980.19 2510.24 C 2081.833 2510.33 2086.297 2510.3 2094.591 2509.214 C 2117.936 2506.198 2138.174 2496.728 2154.159 2481.376 C 2172.859 2463.37 2183.295 2441.262 2185.888 2414.147 C 2186.401 2408.748 2186.492 2396.322 2186.039 2391.737 C 2185.557 2387.032 2184.35 2380.005 2183.204 2375.45 C 2178.529 2356.992 2168.184 2336.543 2156.632 2323 C 2154.34 2320.346 2148.459 2314.465 2146.408 2312.806 L 2145.201 2311.871 L 2147.614 2309.217 C 2151.083 2305.416 2153.314 2302.581 2156.24 2298.268 C 2166.706 2282.856 2172.648 2266.931 2174.307 2249.86 C 2174.759 2245.245 2174.488 2231.401 2173.854 2225.882 C 2170.989 2201.391 2162.393 2182.329 2147.433 2167.37 C 2130.211 2150.148 2106.806 2140.888 2075.801 2139.018 C 2067.687 2138.536 1880.237 2138.596 1880.056 2139.078 Z M 2067.657 2197.229 C 2083.944 2198.646 2094.772 2203.834 2102.192 2213.817 C 2106.354 2219.458 2108.917 2225.912 2110.064 2233.724 C 2110.546 2237.011 2110.546 2246.753 2110.064 2249.86 C 2108.706 2258.637 2105.781 2265.332 2100.653 2271.546 C 2094.018 2279.538 2085.452 2283.761 2071.277 2285.932 C 2069.437 2286.234 2054.175 2286.355 2006.521 2286.415 L 1944.148 2286.536 L 1944.148 2241.716 L 1944.148 2196.927 L 2004.108 2196.927 C 2042.563 2196.927 2065.335 2197.048 2067.657 2197.229 Z M 2072.785 2345.048 C 2083.009 2345.923 2092.51 2349.15 2099.809 2354.217 C 2103.127 2356.509 2109.34 2362.813 2111.903 2366.432 C 2118.629 2375.963 2121.796 2385.795 2122.309 2398.855 C 2122.912 2415.052 2118.539 2427.659 2109.008 2437.16 C 2101.106 2445.032 2091.846 2449.254 2077.761 2451.396 C 2074.564 2451.878 2069.226 2451.908 2009.235 2451.999 L 1944.148 2452.12 L 1944.148 2398.403 L 1944.148 2344.716 L 2006.672 2344.716 C 2047.148 2344.716 2070.432 2344.837 2072.785 2345.048 Z" fill="#000000" stroke="none"/>
    </g>
  </g>
</svg>